<svg xmlns="http://www.w3.org/2000/svg" xmlns:xlink="http://www.w3.org/1999/xlink" width="21" height="21" viewBox="0 0 21 21">
  <defs>
    <clipPath id="clip-path">
      <rect id="SVGID" width="21" height="21" transform="translate(0.375 0.375)" fill="#9fa6b5" stroke="#9fa6b5" stroke-width="0.4"/>
    </clipPath>
  </defs>
  <g id="Group_340" data-name="Group 340" transform="translate(-114.003 -203.583)">
    <g id="Group_339" data-name="Group 339" transform="translate(113.628 203.208)">
      <g id="Group_338" data-name="Group 338" transform="translate(0 0)" clip-path="url(#clip-path)">
        <path id="Path_343" data-name="Path 343" d="M135.013,212.337v0c0-.018,0-.035,0-.052v-.014c0-.014,0-.027-.006-.04l0-.015c0-.016-.007-.032-.012-.048v0c0-.016-.01-.032-.016-.048l-.007-.018-.014-.031-.009-.018c-.008-.014-.016-.028-.025-.042l-.01-.015-.021-.029-.012-.015c-.011-.013-.022-.026-.034-.038l0,0c-.013-.013-.026-.025-.04-.037l0,0-1.05-.871v-2.677a1.438,1.438,0,0,0-1.436-1.436h-3.52l-2.836-2.354a2.259,2.259,0,0,0-2.883,0l-2.836,2.354h-3.52a1.438,1.438,0,0,0-1.436,1.436v2.677l-1.05.871,0,0c-.014.012-.028.024-.04.037l0,0c-.012.012-.023.025-.034.038l-.012.015-.021.03-.01.015c-.009.014-.017.028-.025.042l-.009.018-.014.031-.007.018c-.006.016-.012.032-.016.048v0c0,.016-.008.032-.012.048l0,.015c0,.013,0,.027-.006.04v.014c0,.017,0,.035,0,.052v10.424a2.25,2.25,0,0,0,.708,1.639c.012.012.025.025.038.036a2.248,2.248,0,0,0,1.511.582h16.5a2.249,2.249,0,0,0,1.512-.582c.013-.011.025-.023.038-.036a2.251,2.251,0,0,0,.708-1.639V212.337Zm-18.3-4.229h15.6a.206.206,0,0,1,.205.205V213.1l-.348.289-7,5.809a1.027,1.027,0,0,1-1.31,0l-7-5.809-.348-.289v-4.789a.206.206,0,0,1,.205-.205Zm-1.478,14.651v-9.113l.265.22h0l6.011,4.989-6.214,4.258a1.02,1.02,0,0,1-.063-.354Zm7.262-3.086.572.475a2.259,2.259,0,0,0,2.883,0l.572-.475,6,4.112h-16.03Zm5.012-.818,6.011-4.989h0l.265-.22v9.113a1.02,1.02,0,0,1-.063.354Zm-3.654-13.384a1.026,1.026,0,0,1,1.31,0l1.694,1.406h-4.7Zm0,0" transform="translate(-113.801 -203.466)" fill="#9fa6b5" stroke="#9fa6b5" stroke-width="0.4"/>
      </g>
    </g>
    <path id="Path_344" data-name="Path 344" d="M212.625,317.112a.616.616,0,0,0,.616.616h5.828a.616.616,0,0,0,0-1.231h-5.828a.616.616,0,0,0-.616.616Zm0,0" transform="translate(-93.401 -106.595)" fill="#9fa6b5" stroke="#9fa6b5" stroke-width="0.4"/>
    <path id="Path_345" data-name="Path 345" d="M213.241,362.727h8.988a.616.616,0,0,0,0-1.231h-8.988a.616.616,0,0,0,0,1.231Zm0,0" transform="translate(-93.401 -149.132)" fill="#9fa6b5" stroke="#9fa6b5" stroke-width="0.4"/>
  </g>
</svg>
