<svg xmlns="http://www.w3.org/2000/svg" width="14.642" height="23.167" viewBox="0 0 14.642 23.167">
  <g id="Group_337" data-name="Group 337" transform="translate(-114 -218)">
    <path id="Path_341" data-name="Path 341" d="M127,218H115.647A1.648,1.648,0,0,0,114,219.647v19.874a1.648,1.648,0,0,0,1.647,1.647H127a1.648,1.648,0,0,0,1.646-1.647V219.647A1.648,1.648,0,0,0,127,218Zm-11.43,4.372h11.511v13.417H115.566Zm.081-2.806H127a.081.081,0,0,1,.081.081v1.159H115.566v-1.159a.081.081,0,0,1,.081-.081ZM127,239.6H115.647a.081.081,0,0,1-.081-.081v-2.167h11.511v2.167a.081.081,0,0,1-.081.081Zm0,0" fill="#9fa6b5"/>
    <path id="Path_342" data-name="Path 342" d="M208.38,527.708a.876.876,0,1,1-.876-.876.876.876,0,0,1,.876.876Zm0,0" transform="translate(-86.184 -289.204)" fill="#9fa6b5"/>
  </g>
</svg>
