<svg xmlns="http://www.w3.org/2000/svg" xmlns:xlink="http://www.w3.org/1999/xlink" width="22" height="17" viewBox="0 0 22 17">
  <defs>
    <clipPath id="clip-path">
      <rect id="SVGID" width="22" height="17" transform="translate(0.202 -0.348)" fill="#404f6d"/>
    </clipPath>
  </defs>
  <g id="Group_1393" data-name="Group 1393" transform="translate(-50.099 -202.652)">
    <g id="Group_863" data-name="Group 863" transform="translate(49.896 203)">
      <g id="Group_862" data-name="Group 862" transform="translate(0 0)" clip-path="url(#clip-path)">
        <path id="Path_9635" data-name="Path 9635" d="M61.051,219.649a10.9,10.9,0,0,1-7.326-2.869,16.406,16.406,0,0,1-3.427-4.3,2.36,2.36,0,0,1,.009-2.31,16.781,16.781,0,0,1,3.453-4.3,10.685,10.685,0,0,1,14.579,0,16.724,16.724,0,0,1,3.445,4.3,2.361,2.361,0,0,1,.009,2.3,16.913,16.913,0,0,1-1.194,1.863.863.863,0,1,1-1.389-1.024,15.184,15.184,0,0,0,1.07-1.67.646.646,0,0,0,0-.63c-1.058-1.891-4.075-6.289-9.227-6.289s-8.178,4.4-9.239,6.288a.646.646,0,0,0,0,.632c1.041,1.888,4.026,6.279,9.242,6.279a9,9,0,0,0,5.36-1.784.863.863,0,0,1,1.011,1.4,10.689,10.689,0,0,1-6.372,2.112Zm5.083-8.325a5.09,5.09,0,1,0-5.09,5.089,5.1,5.1,0,0,0,5.09-5.089Zm-1.725,0a3.364,3.364,0,1,1-3.364-3.364,3.368,3.368,0,0,1,3.364,3.364Zm-2.4.234a1.3,1.3,0,0,1-1.2-1.26c0-.005,0-.011,0-.016a.468.468,0,0,0-.732-.385,1.725,1.725,0,1,0,2.4,2.4.468.468,0,0,0-.384-.733l-.075,0Zm0,0" transform="translate(-49.943 -203)" fill="#404f6d"/>
      </g>
    </g>
  </g>
</svg>
